{"title":"Amazing Medical Stories - The Eight Limbed Boy","uid":15884728,"size":1086998587,"categoryP":"video","categoryS":"tv_shows","magnet":"?xt=urn:btih:a1f01dda3a8144f346b51cf9092cc4100c54f328&amp;dn=Amazing+Medical+Stories+-+The+Eight+Limbed+Boy&amp;tr=udp%3A%2F%2Ftracker.leechers-paradise.org%3A6969&amp;tr=udp%3A%2F%2Fzer0day.ch%3A1337&amp;tr=udp%3A%2F%2Fopen.demonii.com%3A1337&amp;tr=udp%3A%2F%2Ftracker.coppersurfer.tk%3A6969&amp;tr=udp%3A%2F%2Fexodus.desync.com%3A6969","seeders":4,"leechers":2,"uploader":"Bullrout","files":1,"time":1474639899,"description":"Amazing Medical Stories - The Eight Limbed Boy\r\n\r\nIn one of India's most remote areas, a boy named Deepak was born with an extraordinary medical condition a parasitic twin. Half of his brother was fused with his chest giving Deepaks body four extra limbs.\r\n\r\nComplete name : Amazing Medical Stories - The Eight Limbed Boy.mkv\r\nFormat : Matroska\r\nFormat version : Version 4 / Version 2\r\nFile size : 1.01 GiB\r\nDuration : 43 min 31 s\r\nOverall bit rate mode : Variable\r\nOverall bit rate : 3 330 kb/s\r\nEncoded date : UTC 2016-06-27 23:35:16\r\nWriting application : mkvmerge v9.2.0 ('Photograph') 64bit\r\nWriting library : libebml v1.3.3 + libmatroska v1.4.4\r\n\r\nVideo\r\nID : 2\r\nFormat : AVC\r\nFormat/Info : Advanced Video Codec\r\nFormat profile :   \r\nFormat settings, CABAC : Yes\r\nFormat settings, ReFrames : 3 frames\r\nCodec ID : V_MPEG4/ISO/AVC\r\nDuration : 43 min 31 s\r\nBit rate mode : Variable\r\nBit rate : 2 944 kb/s\r\nMaximum bit rate : 3 000 kb/s\r\nWidth : 1 280 pixels\r\nHeight : 720 pixels\r\nDisplay aspect ratio : 16:9\r\nFrame rate mode : Constant\r\nFrame rate : 25.000 FPS\r\nStandard : PAL\r\nColor space : YUV\r\nChroma subsampling : 4:2:0\r\nBit depth : 8 bits\r\nScan type : Progressive\r\nBits/(Pixel*Frame) : 0.128\r\nStream size : 917 MiB (88%)\r\nWriting library : x264 core 112\r\nDefault : Yes\r\nForced : No\r\nColor range : Limited\r\nColor primaries : BT.709\r\nTransfer characteristics : BT.709\r\nMatrix coefficients : BT.709\r\n\r\nAudio\r\nID : 1\r\nFormat : AC-3\r\nFormat/Info : Audio Coding 3\r\nMode extension : CM (complete main)\r\nFormat settings, Endianness : Big\r\nCodec ID : A_AC3\r\nDuration : 43 min 31 s\r\nBit rate mode : Constant\r\nBit rate : 384 kb/s\r\nChannel(s) : 6 channels\r\nChannel positions : Front: L C R, Side: L R, LFE\r\nSampling rate : 48.0 kHz\r\nFrame rate : 31.250 FPS (1536 spf)\r\nCompression mode : Lossy\r\nStream size : 120 MiB (12%)\r\nDefault : Yes\r\nForced : No","torrent":{"xt":"urn:btih:a1f01dda3a8144f346b51cf9092cc4100c54f328","amp;dn":"Amazing+Medical+Stories+-+The+Eight+Limbed+Boy","amp;tr":["udp%3A%2F%2Ftracker.leechers-paradise.org%3A6969","udp%3A%2F%2Fzer0day.ch%3A1337","udp%3A%2F%2Fopen.demonii.com%3A1337","udp%3A%2F%2Ftracker.coppersurfer.tk%3A6969","udp%3A%2F%2Fexodus.desync.com%3A6969"],"infoHash":"a1f01dda3a8144f346b51cf9092cc4100c54f328","infoHashBuffer":{"type":"Buffer","data":[161,240,29,218,58,129,68,243,70,181,28,249,9,44,196,16,12,84,243,40]},"announce":[],"urlList":[]}}